<svg width="104" height="104" viewBox="0 0 104 104" fill="none" xmlns="http://www.w3.org/2000/svg">
<path d="M99.0289 31.8665C105.313 56.4674 92.0304 82.3018 67.6672 91.1693C43.304 100.037 16.5227 88.7845 5.52365 65.8997C5.93268 67.5009 6.42461 69.0968 7.00176 70.6826C16.4464 96.6315 45.1385 110.011 71.0874 100.566C97.0363 91.1216 110.416 62.4295 100.971 36.4806C100.394 34.8948 99.7448 33.3561 99.0289 31.8665Z" fill="url(#paint0_linear_1_209)"/>
<path d="M91.4504 69.3447C73.2876 87.0876 44.2729 88.5014 24.4119 71.836C4.55082 55.1706 0.904841 26.3512 15.2242 5.38333C14.042 6.53816 12.9058 7.76216 11.8211 9.05486C-5.92896 30.2086 -3.16976 61.7464 17.984 79.4965C39.1377 97.2466 70.6755 94.4874 88.4256 73.3336C89.5103 72.0409 90.5184 70.7095 91.4504 69.3447Z" fill="url(#paint1_linear_1_209)"/>
<path d="M73.668 0.404846C91.0318 12.8683 96.4451 36.715 85.5326 55.616C74.6201 74.517 51.2614 81.7523 31.7857 72.9463C32.9159 73.7575 34.0968 74.5206 35.327 75.2308C55.4582 86.8536 81.1999 79.9561 92.8227 59.8249C104.445 39.6937 97.548 13.952 77.4168 2.32926C76.1866 1.61904 74.9355 0.977965 73.668 0.404846Z" fill="url(#paint2_linear_1_209)"/>
<defs>
<linearGradient id="paint0_linear_1_209" x1="0.122192" y1="52" x2="104" y2="52" gradientUnits="userSpaceOnUse">
<stop offset="0.2" stop-color="#CFC8B8"/>
<stop offset="0.8" stop-color="#8E897E"/>
</linearGradient>
<linearGradient id="paint1_linear_1_209" x1="0.122192" y1="52" x2="104" y2="52" gradientUnits="userSpaceOnUse">
<stop offset="0.2" stop-color="#CFC8B8"/>
<stop offset="0.8" stop-color="#8E897E"/>
</linearGradient>
<linearGradient id="paint2_linear_1_209" x1="0.122192" y1="52" x2="104" y2="52" gradientUnits="userSpaceOnUse">
<stop offset="0.2" stop-color="#CFC8B8"/>
<stop offset="0.8" stop-color="#8E897E"/>
</linearGradient>
</defs>
</svg>
